# Blender 3.6.9
# www.blender.org
mtllib untitled.mtl
o SnakeHead
v -1.200000 0.000000 -0.050000
v -1.200000 0.025000 -0.043301
v -1.200000 0.043301 -0.025000
v -1.200000 0.050000 -0.000000
v -1.200000 0.043301 0.025000
v -1.200000 0.025000 0.043301
v -1.200000 0.000000 0.050000
v -1.200000 -0.016250 0.043301
v -1.200000 -0.028146 0.025000
v -1.200000 -0.032500 0.000000
v -1.200000 -0.028146 -0.025000
v -1.200000 -0.016250 -0.043301
v -1.000000 0.000000 -0.550000
v -1.000000 0.225000 -0.476314
v -1.000000 0.389711 -0.275000
v -1.000000 0.450000 -0.000000
v -1.000000 0.389711 0.275000
v -1.000000 0.225000 0.476314
v -1.000000 0.000000 0.550000
v -1.000000 -0.146250 0.476314
v -1.000000 -0.253312 0.275000
v -1.000000 -0.292500 0.000000
v -1.000000 -0.253312 -0.275000
v -1.000000 -0.146250 -0.476314
v -0.550000 0.000000 -0.640000
v -0.550000 0.220000 -0.554256
v -0.550000 0.381051 -0.320000
v -0.550000 0.440000 -0.000000
v -0.550000 0.381051 0.320000
v -0.550000 0.220000 0.554256
v -0.550000 0.000000 0.640000
v -0.550000 -0.143000 0.554256
v -0.550000 -0.247683 0.320000
v -0.550000 -0.286000 0.000000
v -0.550000 -0.247683 -0.320000
v -0.550000 -0.143000 -0.554256
v 0.000000 0.030000 -0.520000
v 0.000000 0.230000 -0.450333
v 0.000000 0.376410 -0.260000
v 0.000000 0.430000 -0.000000
v 0.000000 0.376410 0.260000
v 0.000000 0.230000 0.450333
v 0.000000 0.030000 0.520000
v 0.000000 -0.100000 0.450333
v 0.000000 -0.195167 0.260000
v 0.000000 -0.230000 0.000000
v 0.000000 -0.195167 -0.260000
v 0.000000 -0.100000 -0.450333
v 0.550000 0.050000 -0.360000
v 0.550000 0.210000 -0.311769
v 0.550000 0.327128 -0.180000
v 0.550000 0.370000 -0.000000
v 0.550000 0.327128 0.180000
v 0.550000 0.210000 0.311769
v 0.550000 0.050000 0.360000
v 0.550000 -0.054000 0.311769
v 0.550000 -0.130133 0.180000
v 0.550000 -0.158000 0.000000
v 0.550000 -0.130133 -0.180000
v 0.550000 -0.054000 -0.311769
v 1.050000 0.050000 -0.180000
v 1.050000 0.150000 -0.155885
v 1.050000 0.223205 -0.090000
v 1.050000 0.250000 -0.000000
v 1.050000 0.223205 0.090000
v 1.050000 0.150000 0.155885
v 1.050000 0.050000 0.180000
v 1.050000 -0.015000 0.155885
v 1.050000 -0.062583 0.090000
v 1.050000 -0.080000 0.000000
v 1.050000 -0.062583 -0.090000
v 1.050000 -0.015000 -0.155885
v 1.350000 0.040000 -0.050000
v 1.350000 0.075000 -0.043301
v 1.350000 0.100622 -0.025000
v 1.350000 0.110000 -0.000000
v 1.350000 0.100622 0.025000
v 1.350000 0.075000 0.043301
v 1.350000 0.040000 0.050000
v 1.350000 0.017250 0.043301
v 1.350000 0.000596 0.025000
v 1.350000 -0.005500 0.000000
v 1.350000 0.000596 -0.025000
v 1.350000 0.017250 -0.043301
v -1.260000 0.000000 0.000000
v 1.450000 0.040000 0.000000
v -0.450000 0.070000 -0.460000
v -0.355932 0.141862 -0.391656
v -0.485930 0.141862 -0.349417
v -0.566275 0.141862 -0.460000
v -0.485930 0.141862 -0.570583
v -0.355932 0.141862 -0.528344
v -0.414070 0.258138 -0.349417
v -0.544068 0.258138 -0.391656
v -0.544068 0.258138 -0.528344
v -0.414070 0.258138 -0.570583
v -0.333725 0.258138 -0.460000
v -0.450000 0.330000 -0.460000
v -0.450000 0.070000 0.460000
v -0.355932 0.141862 0.528344
v -0.485930 0.141862 0.570583
v -0.566275 0.141862 0.460000
v -0.485930 0.141862 0.349417
v -0.355932 0.141862 0.391656
v -0.414070 0.258138 0.570583
v -0.544068 0.258138 0.528344
v -0.544068 0.258138 0.391656
v -0.414070 0.258138 0.349417
v -0.333725 0.258138 0.460000
v -0.450000 0.330000 0.460000
vn -0.8322 -0.0408 -0.5529
vn -0.8212 0.3041 -0.4829
vn -0.5632 0.4908 -0.6648
vn -0.5830 -0.0639 -0.8100
vn -0.8077 0.5212 -0.2758
vn -0.5136 0.7816 -0.3540
vn -0.8012 0.5984 -0.0000
vn -0.4911 0.8711 -0.0000
vn -0.8077 0.5212 0.2758
vn -0.5136 0.7816 0.3540
vn -0.8212 0.3041 0.4829
vn -0.5632 0.4908 0.6648
vn -0.8322 -0.0408 0.5529
vn -0.5830 -0.0639 0.8100
vn -0.7808 -0.4264 0.4567
vn -0.5363 -0.6053 0.5882
vn -0.6933 -0.6796 0.2398
vn -0.4606 -0.8457 0.2696
vn -0.6607 -0.7506 -0.0000
vn -0.4239 -0.9057 -0.0000
vn -0.6933 -0.6796 -0.2398
vn -0.4606 -0.8457 -0.2696
vn -0.7808 -0.4264 -0.4567
vn -0.5363 -0.6053 -0.5882
vn 0.0047 0.5823 -0.8130
vn 0.0135 -0.0828 -0.9965
vn 0.0118 0.9097 -0.4150
vn 0.0173 0.9999 -0.0000
vn 0.0118 0.9097 0.4150
vn 0.0047 0.5823 0.8130
vn 0.0135 -0.0828 0.9965
vn 0.0334 -0.7152 0.6981
vn 0.0502 -0.9554 0.2911
vn 0.0558 -0.9984 -0.0000
vn 0.0502 -0.9554 -0.2911
vn 0.0334 -0.7152 -0.6981
vn 0.1760 0.5795 -0.7957
vn 0.2400 -0.0719 -0.9681
vn 0.0997 0.9048 -0.4141
vn 0.0688 0.9976 -0.0000
vn 0.0997 0.9048 0.4141
vn 0.1760 0.5795 0.7957
vn 0.2400 -0.0719 0.9681
vn 0.2057 -0.7014 0.6825
vn 0.1412 -0.9458 0.2925
vn 0.1192 -0.9929 -0.0000
vn 0.1412 -0.9458 -0.2925
vn 0.2057 -0.7014 -0.6825
vn 0.2622 0.5267 -0.8086
vn 0.3015 -0.0636 -0.9513
vn 0.2027 0.8704 -0.4486
vn 0.1758 0.9844 -0.0000
vn 0.2027 0.8704 0.4486
vn 0.2622 0.5267 0.8086
vn 0.3015 -0.0636 0.9513
vn 0.2522 -0.6545 0.7127
vn 0.1742 -0.9284 0.3281
vn 0.1460 -0.9893 -0.0000
vn 0.1742 -0.9284 -0.3281
vn 0.2522 -0.6545 -0.7127
vn 0.3560 0.4572 -0.8150
vn 0.3606 -0.0564 -0.9310
vn 0.3379 0.8087 -0.4816
vn 0.3288 0.9444 -0.0000
vn 0.3379 0.8087 0.4816
vn 0.3560 0.4572 0.8150
vn 0.3606 -0.0564 0.9310
vn 0.3068 -0.5945 0.7433
vn 0.2300 -0.8991 0.3725
vn 0.2004 -0.9797 -0.0000
vn 0.2300 -0.8991 -0.3725
vn 0.3068 -0.5945 -0.7433
vn 0.4386 0.3816 -0.8136
vn 0.4179 -0.0517 -0.9070
vn 0.4742 0.7206 -0.5059
vn 0.4932 0.8699 -0.0000
vn 0.4742 0.7206 0.5059
vn 0.4386 0.3816 0.8136
vn 0.4179 -0.0517 0.9070
vn 0.3871 -0.5254 0.7577
vn 0.3436 -0.8458 0.4082
vn 0.3259 -0.9454 -0.0000
vn 0.3436 -0.8458 -0.4082
vn 0.3871 -0.5254 -0.7577
vn -0.9964 -0.0845 -0.0000
vn 0.9971 -0.0765 -0.0000
vn -0.0000 -1.0000 -0.0000
vn 0.7236 -0.4472 0.5257
vn -0.2764 -0.4472 0.8507
vn 0.7236 -0.4472 -0.5257
vn -0.8944 -0.4472 -0.0000
vn -0.2764 -0.4472 -0.8507
vn 0.8944 0.4472 -0.0000
vn 0.2764 0.4472 0.8507
vn -0.7236 0.4472 0.5257
vn -0.7236 0.4472 -0.5257
vn 0.2764 0.4472 -0.8507
vn -0.0000 1.0000 -0.0000
vt 0.873668 0.902094
vt 0.880406 0.898457
vt 0.939665 0.958986
vt 0.879612 0.994996
vt 0.884749 0.892520
vt 0.977140 0.896615
vt 0.885533 0.885875
vt 0.981996 0.824595
vt 0.882548 0.880303
vt 0.952931 0.762224
vt 0.876594 0.877295
vt 0.897733 0.726214
vt 0.869266 0.877659
vt 0.831193 0.726214
vt 0.864990 0.880596
vt 0.793293 0.755922
vt 0.862449 0.886020
vt 0.772036 0.813680
vt 0.862324 0.892477
vt 0.773117 0.884011
vt 0.864650 0.898238
vt 0.796246 0.948071
vt 0.868802 0.901757
vt 0.835226 0.988694
vt 0.905236 0.710403
vt 0.835244 0.711275
vt 0.841843 0.576570
vt 0.911392 0.575318
vt 0.772036 0.716205
vt 0.777000 0.582480
vt 0.031405 0.005004
vt 0.105117 0.007823
vt 0.091617 0.139479
vt 0.005004 0.135683
vt 0.187859 0.016190
vt 0.187059 0.148700
vt 0.257461 0.027863
vt 0.265758 0.160874
vt 0.653304 0.012620
vt 0.713919 0.005004
vt 0.697166 0.118951
vt 0.638708 0.127891
vt 0.760509 0.013311
vt 0.743531 0.128566
vt 0.595778 0.730648
vt 0.553082 0.732201
vt 0.566031 0.599030
vt 0.617988 0.597451
vt 0.482521 0.733097
vt 0.483091 0.599990
vt 0.403003 0.733097
vt 0.391393 0.600074
vt 0.335834 0.732201
vt 0.315507 0.599258
vt 0.299012 0.730648
vt 0.275766 0.597762
vt 0.829146 0.417640
vt 0.891700 0.416743
vt 0.772036 0.422354
vt 0.074951 0.300289
vt 0.005004 0.297467
vt 0.152924 0.308043
vt 0.218032 0.318651
vt 0.681630 0.283242
vt 0.627996 0.290466
vt 0.723290 0.291080
vt 0.545261 0.435932
vt 0.586320 0.434533
vt 0.478296 0.436754
vt 0.403368 0.436779
vt 0.340555 0.436001
vt 0.306687 0.434628
vt 0.822169 0.259889
vt 0.871603 0.259390
vt 0.778146 0.263064
vt 0.062029 0.463400
vt 0.014037 0.461712
vt 0.116443 0.469034
vt 0.162698 0.477103
vt 0.671347 0.451913
vt 0.627996 0.456874
vt 0.704231 0.457365
vt 0.762028 0.312010
vt 0.734009 0.471874
vt 0.471671 0.273335
vt 0.517603 0.272723
vt 0.419369 0.273309
vt 0.374712 0.272653
vt 0.349665 0.271542
vt 0.825293 0.117587
vt 0.855699 0.117451
vt 0.799117 0.119091
vt 0.055184 0.614695
vt 0.031590 0.614097
vt 0.082793 0.617758
vt 0.107017 0.622467
vt 0.669292 0.609051
vt 0.641842 0.611494
vt 0.689488 0.611801
vt 0.707125 0.619073
vt 0.464215 0.124628
vt 0.486783 0.124282
vt 0.437666 0.124576
vt 0.414249 0.124139
vt 0.897271 0.261384
vt 0.872232 0.118521
vt 0.836715 0.032981
vt 0.847215 0.032984
vt 0.827939 0.033369
vt 0.056170 0.708600
vt 0.049761 0.708524
vt 0.063984 0.709540
vt 0.071109 0.711092
vt 0.672248 0.705751
vt 0.662537 0.706416
vt 0.679214 0.706523
vt 0.685105 0.708550
vt 0.456575 0.035088
vt 0.462700 0.034977
vt 0.449057 0.035059
vt 0.442159 0.034898
vt 0.853143 0.033308
vt 0.748995 0.751610
vt 0.755700 0.755306
vt 0.742947 0.770074
vt 0.742947 0.748713
vt 0.749554 0.795639
vt 0.742947 0.795910
vt 0.754101 0.780083
vt 0.757206 0.795910
vt 0.876287 0.898658
vt 0.247862 0.757762
vt 0.253425 0.760772
vt 0.235987 0.771017
vt 0.241480 0.754180
vt 0.235987 0.750984
vt 0.759118 0.757550
vt 0.842897 0.005004
vt 0.058247 0.740976
vt 0.672665 0.738705
vt 0.451667 0.005004
vt 0.700864 0.814147
vt 0.697996 0.781512
vt 0.732938 0.801723
vt 0.095531 0.816190
vt 0.097272 0.785566
vt 0.131098 0.804958
vt 0.406339 0.781682
vt 0.429162 0.757838
vt 0.433429 0.798011
vt 0.095531 0.750984
vt 0.131099 0.764660
vt 0.178539 0.799309
vt 0.141107 0.784004
vt 0.173078 0.759239
vt 0.732938 0.761283
vt 0.466092 0.774169
vt 0.361378 0.795712
vt 0.341053 0.776066
vt 0.361378 0.755279
vt 0.396330 0.808527
vt 0.395541 0.775341
vt 0.700864 0.748713
vt 0.459188 0.743106
vt 0.466092 0.808106
vt 0.141107 0.750985
vt 0.545862 0.794131
vt 0.545862 0.754076
vt 0.578343 0.772302
vt 0.582938 0.807916
vt 0.605853 0.776381
vt 0.396330 0.743106
vt 0.582939 0.743106
vt 0.007872 0.816418
vt 0.005004 0.783783
vt 0.039946 0.803994
vt 0.049955 0.816190
vt 0.051696 0.785566
vt 0.085522 0.804958
vt 0.476100 0.781682
vt 0.498924 0.757838
vt 0.503190 0.798011
vt 0.049955 0.750984
vt 0.085522 0.764660
vt 0.225979 0.799309
vt 0.188547 0.784004
vt 0.220518 0.759239
vt 0.039946 0.763554
vt 0.535853 0.774170
vt 0.296092 0.795712
vt 0.275766 0.776066
vt 0.296092 0.755279
vt 0.331044 0.808527
vt 0.330255 0.775341
vt 0.007872 0.750985
vt 0.528950 0.743106
vt 0.535853 0.808106
vt 0.188547 0.750984
vt 0.627996 0.799739
vt 0.627996 0.759683
vt 0.660477 0.777909
vt 0.665073 0.813524
vt 0.687988 0.781988
vt 0.331044 0.743106
vt 0.665074 0.748713
s 1
f 1/1/1 2/2/2 14/3/3 13/4/4
f 2/2/2 3/5/5 15/6/6 14/3/3
f 3/5/5 4/7/7 16/8/8 15/6/6
f 4/7/7 5/9/9 17/10/10 16/8/8
f 5/9/9 6/11/11 18/12/12 17/10/10
f 6/11/11 7/13/13 19/14/14 18/12/12
f 7/13/13 8/15/15 20/16/16 19/14/14
f 8/15/15 9/17/17 21/18/18 20/16/16
f 9/17/17 10/19/19 22/20/20 21/18/18
f 10/19/19 11/21/21 23/22/22 22/20/20
f 11/21/21 12/23/23 24/24/24 23/22/22
f 12/23/23 1/1/1 13/4/4 24/24/24
f 13/25/4 14/26/3 26/27/25 25/28/26
f 14/26/3 15/29/6 27/30/27 26/27/25
f 15/31/6 16/32/8 28/33/28 27/34/27
f 16/32/8 17/35/10 29/36/29 28/33/28
f 17/35/10 18/37/12 30/38/30 29/36/29
f 18/39/12 19/40/14 31/41/31 30/42/30
f 19/40/14 20/43/16 32/44/32 31/41/31
f 20/45/16 21/46/18 33/47/33 32/48/32
f 21/46/18 22/49/20 34/50/34 33/47/33
f 22/49/20 23/51/22 35/52/35 34/50/34
f 23/51/22 24/53/24 36/54/36 35/52/35
f 24/53/24 13/55/4 25/56/26 36/54/36
f 25/28/26 26/27/25 38/57/37 37/58/38
f 26/27/25 27/30/27 39/59/39 38/57/37
f 27/34/27 28/33/28 40/60/40 39/61/39
f 28/33/28 29/36/29 41/62/41 40/60/40
f 29/36/29 30/38/30 42/63/42 41/62/41
f 30/42/30 31/41/31 43/64/43 42/65/42
f 31/41/31 32/44/32 44/66/44 43/64/43
f 32/48/32 33/47/33 45/67/45 44/68/44
f 33/47/33 34/50/34 46/69/46 45/67/45
f 34/50/34 35/52/35 47/70/47 46/69/46
f 35/52/35 36/54/36 48/71/48 47/70/47
f 36/54/36 25/56/26 37/72/38 48/71/48
f 37/58/38 38/57/37 50/73/49 49/74/50
f 38/57/37 39/59/39 51/75/51 50/73/49
f 39/61/39 40/60/40 52/76/52 51/77/51
f 40/60/40 41/62/41 53/78/53 52/76/52
f 41/62/41 42/63/42 54/79/54 53/78/53
f 42/65/42 43/64/43 55/80/55 54/81/54
f 43/64/43 44/66/44 56/82/56 55/80/55
f 44/66/44 45/83/45 57/84/57 56/82/56
f 45/67/45 46/69/46 58/85/58 57/86/57
f 46/69/46 47/70/47 59/87/59 58/85/58
f 47/70/47 48/71/48 60/88/60 59/87/59
f 48/71/48 37/72/38 49/89/50 60/88/60
f 49/74/50 50/73/49 62/90/61 61/91/62
f 50/73/49 51/75/51 63/92/63 62/90/61
f 51/77/51 52/76/52 64/93/64 63/94/63
f 52/76/52 53/78/53 65/95/65 64/93/64
f 53/78/53 54/79/54 66/96/66 65/95/65
f 54/81/54 55/80/55 67/97/67 66/98/66
f 55/80/55 56/82/56 68/99/68 67/97/67
f 56/82/56 57/84/57 69/100/69 68/99/68
f 57/86/57 58/85/58 70/101/70 69/102/69
f 58/85/58 59/87/59 71/103/71 70/101/70
f 59/87/59 60/88/60 72/104/72 71/103/71
f 60/105/60 49/74/50 61/91/62 72/106/72
f 61/91/62 62/90/61 74/107/73 73/108/74
f 62/90/61 63/92/63 75/109/75 74/107/73
f 63/94/63 64/93/64 76/110/76 75/111/75
f 64/93/64 65/95/65 77/112/77 76/110/76
f 65/95/65 66/96/66 78/113/78 77/112/77
f 66/98/66 67/97/67 79/114/79 78/115/78
f 67/97/67 68/99/68 80/116/80 79/114/79
f 68/99/68 69/100/69 81/117/81 80/116/80
f 69/102/69 70/101/70 82/118/82 81/119/81
f 70/101/70 71/103/71 83/120/83 82/118/82
f 71/103/71 72/104/72 84/121/84 83/120/83
f 72/106/72 61/91/62 73/108/74 84/122/84
f 2/123/2 1/124/1 85/125/85
f 3/126/5 2/123/2 85/125/85
f 4/127/7 3/128/5 85/129/85
f 5/130/9 4/127/7 85/129/85
f 6/11/11 5/9/9 85/131/85
f 7/13/13 6/11/11 85/131/85
f 8/15/15 7/13/13 85/131/85
f 9/17/17 8/15/15 85/131/85
f 10/132/19 9/133/17 85/134/85
f 11/135/21 10/132/19 85/134/85
f 12/136/23 11/135/21 85/134/85
f 1/124/1 12/137/23 85/125/85
f 73/108/74 74/107/73 86/138/86
f 74/107/73 75/109/75 86/138/86
f 75/111/75 76/110/76 86/139/86
f 76/110/76 77/112/77 86/139/86
f 77/112/77 78/113/78 86/139/86
f 78/115/78 79/114/79 86/140/86
f 79/114/79 80/116/80 86/140/86
f 80/116/80 81/117/81 86/140/86
f 81/119/81 82/118/82 86/141/86
f 82/118/82 83/120/83 86/141/86
f 83/120/83 84/121/84 86/141/86
f 84/122/84 73/108/74 86/138/86
f 87/142/87 88/143/88 89/144/89
f 88/145/88 87/146/87 92/147/90
f 87/148/87 89/149/89 90/150/91
f 87/146/87 90/151/91 91/152/92
f 87/146/87 91/152/92 92/147/90
f 88/153/88 92/154/90 97/155/93
f 89/144/89 88/143/88 93/156/94
f 90/150/91 89/149/89 94/157/95
f 91/158/92 90/159/91 95/160/96
f 92/161/90 91/158/92 96/162/97
f 88/143/88 97/163/93 93/156/94
f 89/149/89 93/164/94 94/157/95
f 90/150/91 94/157/95 95/165/96
f 91/158/92 95/160/96 96/162/97
f 92/154/90 96/166/97 97/155/93
f 93/167/94 97/168/93 98/169/98
f 94/170/95 93/167/94 98/169/98
f 95/171/96 94/170/95 98/169/98
f 96/162/97 95/160/96 98/172/98
f 97/168/93 96/173/97 98/169/98
f 99/174/87 100/175/88 101/176/89
f 100/177/88 99/178/87 104/179/90
f 99/180/87 101/181/89 102/182/91
f 99/178/87 102/183/91 103/184/92
f 99/178/87 103/184/92 104/179/90
f 100/185/88 104/186/90 109/187/93
f 101/176/89 100/175/88 105/188/94
f 102/182/91 101/181/89 106/189/95
f 103/190/92 102/191/91 107/192/96
f 104/193/90 103/190/92 108/194/97
f 100/175/88 109/195/93 105/188/94
f 101/181/89 105/196/94 106/189/95
f 102/182/91 106/189/95 107/197/96
f 103/190/92 107/192/96 108/194/97
f 104/186/90 108/198/97 109/187/93
f 105/199/94 109/200/93 110/201/98
f 106/202/95 105/199/94 110/201/98
f 107/203/96 106/202/95 110/201/98
f 108/194/97 107/192/96 110/204/98
f 109/200/93 108/205/97 110/201/98
